<?xml version="1.0" encoding="utf-8"?>
<!-- Generator: Adobe Illustrator 27.1.1, SVG Export Plug-In . SVG Version: 6.00 Build 0)  -->
<svg version="1.1" id="XLR" xmlns="http://www.w3.org/2000/svg" xmlns:xlink="http://www.w3.org/1999/xlink" x="0px" y="0px"
	 viewBox="0 0 100 100" style="enable-background:new 0 0 100 100;" xml:space="preserve">
<style type="text/css">
	.st0{fill:none;}
	.st1{font-family:'MyriadPro-Regular';}
	.st2{font-size:18px;}
</style>
<rect y="75" class="st0" width="100" height="25"/>
<text transform="matrix(1 0 0 1 28.1211 93.8896)" class="st1 st2">Tuner</text>
<path d="M79.05,46.3c0,0.24,0,0.48-0.02,0.72h-8.01c0.02-0.24,0.02-0.48,0.02-0.72c0-11.55-9.28-20.92-20.71-20.92
	S29.63,34.75,29.63,46.3c0,0.24,0,0.48,0.02,0.72h-8.68c-0.02-0.24-0.02-0.48-0.02-0.72c0-16.21,13.01-29.35,29.05-29.35
	C66.05,16.95,79.05,30.09,79.05,46.3z"/>
<path d="M65.58,46.5c0,0.17,0,0.35-0.01,0.52h-6.64c0.01-0.17,0.02-0.35,0.02-0.52c0-4.8-3.89-8.69-8.69-8.69
	c-4.8,0-8.69,3.89-8.69,8.69c0,0.17,0.01,0.35,0.02,0.52h-6.15c-0.01-0.17-0.01-0.35-0.01-0.52c0-8.33,6.75-15.08,15.08-15.08
	S65.58,38.18,65.58,46.5z"/>
<path d="M50.03,68.55h-0.07c-1.22,0-2.22-0.99-2.22-2.22V46.64c0-1.22,0.99-2.22,2.22-2.22h0.07c1.22,0,2.22,0.99,2.22,2.22v19.69
	C52.25,67.56,51.26,68.55,50.03,68.55z"/>
</svg>
